# xmcd CD database file
#
# Track frame offsets:
#	150
#	10695
#	17314
#	30382
#	45960
#	55536
#	77579
#	92098
#	113753
#	127435
#	132918
#	144596
#	152331
#	166379
#	173993
#
# Disc length: 2428 seconds
#
# Revision: 1
# Processed by: cddbd v1.5.2PL0 Copyright (c) Steve Scherf et al.
# Submitted via: CDex 1.70beta2
#
DISCID=ab097a0f
DTITLE=johannes paul II. - gedichte von karol wojtyla
DYEAR=2005
DGENRE=Vocal
TTITLE0=invokation des menschen, der zum leib der geschichte geworden ist
TTITLE1=der boden
TTITLE2=der schauspieler
TTITLE3=nachträgliche betrachtung einer begegnung
TTITLE4=kinder
TTITLE5=hoffnung, die über das ende geht
TTITLE6=der melanchoniker
TTITLE7=materie
TTITLE8=zur erinnerung an einen arbeitskollegen
TTITLE9=der mensch des intellekts
TTITLE10=die blinden
TTITLE11=der schyzothyme
TTITLE12=für die reisegefährten
TTITLE13=der willensmensch
TTITLE14=beschreibung des menschen
EXTD=YEAR: 2005
EXTT0=
EXTT1=
EXTT2=
EXTT3=
EXTT4=
EXTT5=
EXTT6=
EXTT7=
EXTT8=
EXTT9=
EXTT10=
EXTT11=
EXTT12=
EXTT13=
EXTT14=
PLAYORDER=
